<svg xmlns="http://www.w3.org/2000/svg" width="166.82999999999998" height="35" viewBox="0 0 166.82999999999998 35"><rect class="svg__rect" x="0" y="0" width="115.31" height="35" fill="#EA4560"/><rect class="svg__rect" x="113.31" y="0" width="53.519999999999996" height="35" fill="#000000"/><path class="svg__text" d="M15.69 22L14.22 22L14.22 13.47L16.14 13.47L18.60 20.01L21.06 13.47L22.97 13.47L22.97 22L21.49 22L21.49 19.19L21.64 15.43L19.12 22L18.06 22L15.55 15.43L15.69 19.19L15.69 22ZM28.49 22L26.95 22L30.17 13.47L31.50 13.47L34.73 22L33.18 22L32.49 20.01L29.18 20.01L28.49 22ZM30.83 15.28L29.60 18.82L32.07 18.82L30.83 15.28ZM41.14 22L38.69 22L38.69 13.47L41.21 13.47Q42.34 13.47 43.21 13.97Q44.09 14.48 44.57 15.40Q45.05 16.33 45.05 17.52L45.05 17.52L45.05 17.95Q45.05 19.16 44.57 20.08Q44.08 21.00 43.19 21.50Q42.30 22 41.14 22L41.14 22ZM40.17 14.66L40.17 20.82L41.14 20.82Q42.30 20.82 42.93 20.09Q43.55 19.36 43.56 17.99L43.56 17.99L43.56 17.52Q43.56 16.13 42.96 15.40Q42.35 14.66 41.21 14.66L41.21 14.66L40.17 14.66ZM55.09 22L49.51 22L49.51 13.47L55.05 13.47L55.05 14.66L51.00 14.66L51.00 17.02L54.50 17.02L54.50 18.19L51.00 18.19L51.00 20.82L55.09 20.82L55.09 22ZM66.65 22L64.68 13.47L66.15 13.47L67.47 19.88L69.10 13.47L70.34 13.47L71.96 19.89L73.27 13.47L74.74 13.47L72.77 22L71.35 22L69.73 15.77L68.07 22L66.65 22ZM80.38 22L78.90 22L78.90 13.47L80.38 13.47L80.38 22ZM86.87 14.66L84.23 14.66L84.23 13.47L91.00 13.47L91.00 14.66L88.34 14.66L88.34 22L86.87 22L86.87 14.66ZM96.24 22L94.75 22L94.75 13.47L96.24 13.47L96.24 17.02L100.05 17.02L100.05 13.47L101.53 13.47L101.53 22L100.05 22L100.05 18.21L96.24 18.21L96.24 22Z" fill="#FFFFFF"/><path class="svg__text" d="M134.61 22L127.08 22L127.08 20.51L131.32 15.48L127.19 15.48L127.19 13.60L134.42 13.60L134.42 15.09L130.19 20.11L134.61 20.11L134.61 22ZM141.51 22L139.13 22L139.13 13.60L141.51 13.60L141.51 22ZM146.25 17.80L146.25 17.80Q146.25 16.54 146.85 15.54Q147.45 14.55 148.52 13.99Q149.59 13.43 150.93 13.43L150.93 13.43Q152.11 13.43 153.04 13.83Q153.98 14.22 154.60 14.97L154.60 14.97L153.09 16.33Q152.25 15.40 151.07 15.40L151.07 15.40Q151.06 15.40 151.05 15.40L151.05 15.40Q149.97 15.40 149.31 16.06Q148.65 16.71 148.65 17.80L148.65 17.80Q148.65 18.50 148.95 19.04Q149.25 19.59 149.79 19.89Q150.33 20.20 151.03 20.20L151.03 20.20Q151.71 20.20 152.31 19.93L152.31 19.93L152.31 17.62L154.41 17.62L154.41 21.10Q153.69 21.61 152.75 21.89Q151.82 22.17 150.88 22.17L150.88 22.17Q149.56 22.17 148.51 21.61Q147.45 21.05 146.85 20.05Q146.25 19.06 146.25 17.80Z" fill="#FFB000" x="126.31"/></svg>